# xmcd
#
# Track frame offsets:
#   150
#   11373
#   25756
#   35758
#   46401
#   56678
#   71542
#   94113
#   114043
#   135235
#   145959
#   159833
#   174810
#   186401
#   198312
#   211136
#   220791
#
# Disc length: 3261 seconds
#
# Revision: 0
# Processed by: cddbd v1.5.2PL0 Copyright (c) Steve Scherf et al.
# Submitted via: GXTranscoder 2.0.1939
#
DISCID=dd0cbb11
DTITLE=Gospel BlueGrass - Gospel BlueGrass
DYEAR=2008
DGENRE=Blues
TTITLE0=Gospel Blue Grass
TTITLE1=Gospel Blue Grass
TTITLE2=Gospel Blue Grass
TTITLE3=Gospel Blue Grass
TTITLE4=Gospel Blue Grass
TTITLE5=Gospel Blue Grass
TTITLE6=Gospel Blue Grass
TTITLE7=Gospel Blue Grass
TTITLE8=Gospel Blue Grass
TTITLE9=Gospel Blue Grass
TTITLE10=Gospel Blue Grass
TTITLE11=Gospel Blue Grass
TTITLE12=Gospel Blue Grass
TTITLE13=Gospel Blue Grass
TTITLE14=Gospel Blue Grass
TTITLE15=Gospel Blue Grass
TTITLE16=Gospel Blue Grass
EXTD=
EXTT0=
EXTT1=
EXTT2=
EXTT3=
EXTT4=
EXTT5=
EXTT6=
EXTT7=
EXTT8=
EXTT9=
EXTT10=
EXTT11=
EXTT12=
EXTT13=
EXTT14=
EXTT15=
EXTT16=
PLAYORDER=
